<svg id="Capa_1" data-name="Capa 1" xmlns="http://www.w3.org/2000/svg" viewBox="0 0 439.73 387.71"><g id="Cloud_solutions_rast" data-name="Cloud solutions rast"><path d="M96.71,478.86c-1.8-1.9-3.65-3.76-5.4-5.7C79.63,460.22,72,445.2,69.2,428c-4.81-29.85,3-56.14,23.64-78.29,13.73-14.7,30.8-23.49,50.61-26.95,2.35-.41,4.73-.62,7.09-.86a1.2,1.2,0,0,0,1.23-1c5-19.58,15-36.29,29.29-50.47,1.55-1.54,3.18-3,4.81-4.44a1.59,1.59,0,0,1,1.25-.35c3.92,1.3,7.95,1.2,12,1.14,4.65-.07,9.3,0,13.94,0,.15,0,.3,0,.82.06l-2.17,1.33a97,97,0,0,0-35.11,36,89.39,89.39,0,0,0-10.28,30.71,15.82,15.82,0,0,0-.31,1.91c0,1.35-.7,1.68-2,1.7-4.12.08-8.24.12-12.34.48a71.05,71.05,0,0,0-38.79,15.49c-14.7,11.69-23.94,26.83-27,45.36-3.78,23.08,2.21,43.59,17.48,61.36a2.19,2.19,0,0,0,1.91.72h67.05q128.82,0,257.64,0a3.15,3.15,0,0,0,2.67-1.22,72.64,72.64,0,0,0,17.79-41,73.64,73.64,0,0,0-51.57-77.84l-1.07-.36a61.89,61.89,0,0,1,6.25-16c2.76,1,5.57,1.92,8.23,3.11,29.12,13,47.68,35,53.79,66.35,5.9,30.29-2.36,57.06-23.25,79.85-1.28,1.4-2.64,2.72-4,4.08Z" transform="translate(-67.82 -91.15)"/><path d="M346.55,424H313.82c-6.13,0-10.37-4.22-10.38-10.35q0-26.13,0-52.25a10,10,0,0,1,4.9-9,1.56,1.56,0,0,0,.52-1.25c-2.06-14.78-6.46-28.61-16.13-40.39a114,114,0,0,1-12.42-17.89,92.25,92.25,0,0,1-10.75-33.43c-2.78-23.68,4.12-44.25,20-61.74a73.9,73.9,0,0,1,46.86-24.26c24.43-3,45.89,4,63.85,20.88,13.38,12.62,21,28.28,23.5,46.51,1.1,8.18.4,16.27-1,24.35-2.73,15.45-9.43,29.07-19,41.37-3.94,5.07-7.95,10.09-10.95,15.81-3.82,7.26-6,15-7.52,23-.36,1.86-.63,3.74-1,5.6a1.3,1.3,0,0,0,.7,1.57,9.48,9.48,0,0,1,4.73,8.48q0,26.49,0,53a9.83,9.83,0,0,1-10.23,10Zm8.54-74.94a3,3,0,0,0,.5.15c3.68,0,7.36,0,11,0,.76,0,.83-.45.92-1,.5-2.86.94-5.74,1.52-8.58,2.2-10.71,5.54-21,11.59-30.23,3.52-5.35,7.45-10.45,11.31-15.58,9.33-12.43,14.67-26.42,15.26-41.9.65-17.16-5.44-32-17.53-44.2C377,195,361.45,189,343.47,189.87A60.69,60.69,0,0,0,286,248.55a69.82,69.82,0,0,0,5.8,28.87c3.28,7.83,8,14.73,13.23,21.34,5.35,6.77,10.13,13.89,13.45,21.91A116.48,116.48,0,0,1,325.62,348c.14.94.43,1.29,1.42,1.28,3.27-.07,6.55,0,9.82,0,.35,0,.7-.05,1.18-.08V336.64q0-22.12,0-44.25a1.75,1.75,0,0,0-.9-1.77,19.56,19.56,0,0,1-5.9-5.84c-4.13-6.13-5.59-13-5.22-20.26a30,30,0,0,1,5.41-16.45c4.3-5.95,10-9.31,17.53-8.29,6.07.81,10.44,4.36,13.55,9.43,5,8.12,5.8,16.92,3.64,26-1.48,6.24-4.52,11.58-9.94,15.27a2.26,2.26,0,0,0-1.15,2.14q0,27.53,0,55Zm21,17.31H317.19v43.88h58.87ZM346.61,256.49a18.73,18.73,0,0,0-1.44,1.69c-2.88,4.27-2.87,12.42,0,16.73,1.22,1.85,1.84,1.92,2.9,0a16.66,16.66,0,0,0,0-16.62A13,13,0,0,0,346.61,256.49Z" transform="translate(-67.82 -91.15)"/><path d="M424,184.06a6.75,6.75,0,0,1-6.06-4,7.09,7.09,0,0,1,1.11-7.82,9.23,9.23,0,0,1,.74-.8l36.93-36.93c2.9-2.9,6.74-3.29,9.86-1a7.07,7.07,0,0,1,1.17,10.12,12,12,0,0,1-.91,1q-18.54,18.55-37.09,37.11A7.5,7.5,0,0,1,424,184.06Z" transform="translate(-67.82 -91.15)"/><path d="M231.27,132.05a7.08,7.08,0,0,1,4.77,2.14q18.6,18.59,37.22,37.13c2.38,2.37,3.31,5.05,2.11,8.25A7,7,0,0,1,264,182.26c-.57-.52-1.09-1.08-1.63-1.62l-36.25-36.25a7.23,7.23,0,0,1-.28-10.25A6.68,6.68,0,0,1,231.27,132.05Z" transform="translate(-67.82 -91.15)"/><path d="M473.72,241c8.88,0,17.77,0,26.65,0a6.7,6.7,0,0,1,6.37,4.07,6.53,6.53,0,0,1-.66,7.29,7.13,7.13,0,0,1-5.87,2.88q-26.65,0-53.32,0a7.13,7.13,0,1,1,.05-14.25C455.86,241,464.79,241,473.72,241Z" transform="translate(-67.82 -91.15)"/><path d="M353.72,125.18v26.3A7.24,7.24,0,0,1,346.4,159c-3.83,0-6.9-3.33-6.9-7.53V98.64a7.25,7.25,0,0,1,7.37-7.49c3.73,0,6.85,3.41,6.85,7.5Z" transform="translate(-67.82 -91.15)"/><path d="M219.73,241h26.41a6.85,6.85,0,0,1,6.66,4.2c2.26,4.85-1.22,10.05-6.73,10.06q-17.26,0-34.53,0c-6.22,0-12.44,0-18.66,0a6.73,6.73,0,0,1-6.28-3.83,6.56,6.56,0,0,1,.22-7.12,7.17,7.17,0,0,1,6.25-3.3Z" transform="translate(-67.82 -91.15)"/></g></svg>