<svg id="Capa_1" data-name="Capa 1" xmlns="http://www.w3.org/2000/svg" viewBox="0 0 349.03 384.83"><g id="Custom_Services_rast" data-name="Custom Services rast"><path d="M460.45,333.68v6.12a1.84,1.84,0,0,0-.17.48,71.42,71.42,0,0,1-3.65,16.79,144.39,144.39,0,0,1-18.16,35.75,119.5,119.5,0,0,1-21.8,24.73,45.16,45.16,0,0,1-14.45,8.59,2.57,2.57,0,0,1-2.33-.24c-10.55-6.14-21.14-12.23-31.7-18.37a1.66,1.66,0,0,0-2.11.07,132.83,132.83,0,0,1-21.31,12.31,1.64,1.64,0,0,0-1.16,1.76q.06,18.51,0,37a3,3,0,0,1-.7,1.82c-3.59,4-8.18,6.6-13.11,8.58-11.15,4.47-22.87,6-34.76,6.58-.78,0-1.55.15-2.33.22h-8.52a3.42,3.42,0,0,0-.6-.18c-5.54-.45-11.1-.73-16.62-1.38a100.12,100.12,0,0,1-23.8-5.69,44.69,44.69,0,0,1-14.31-8.16,2.25,2.25,0,0,1-.82-1.88c0-12.37,0-24.74,0-37.12a1.36,1.36,0,0,0-.92-1.46,133.19,133.19,0,0,1-21.51-12.39,1.41,1.41,0,0,0-1.81-.05Q187.94,416.8,172,426a2.46,2.46,0,0,1-2.45.23c-1.52-.67-3.12-1.21-4.6-2-7-3.61-12.76-8.74-18.07-14.43a151,151,0,0,1-26.79-40.36A96.05,96.05,0,0,1,112.2,345c-.31-1.86-.52-3.73-.78-5.59v-5.24c.07-.27.15-.54.21-.82.38-1.92.69-3.86,1.17-5.75A2.81,2.81,0,0,1,114,326q15.89-9.24,31.82-18.4c.52-.3,1-.5.9-1.37a135.15,135.15,0,0,1-.06-25.6,1.62,1.62,0,0,0-1-1.84q-16-9.18-31.95-18.4a2.38,2.38,0,0,1-1.24-1.76,39.19,39.19,0,0,1-.51-11.18,84.65,84.65,0,0,1,4.39-20.09,153.61,153.61,0,0,1,19.46-38.62c5.47-7.91,11.57-15.26,19.13-21.27,4.33-3.45,9-6.35,14.49-7.49a3.12,3.12,0,0,1,2,.3q16.14,9.24,32.22,18.58a1.45,1.45,0,0,0,1.82,0c3.52-2.31,7.06-4.61,10.66-6.8,2.38-1.45,4.89-2.69,7.4-4.07.12.44.21.71.27,1a60.37,60.37,0,0,0,8.67,21c4,6.2,8.92,11.56,14,16.87,2,2.13,4,4.28,6.1,6.5l-1.06.49a83.63,83.63,0,0,0-28.28,19.86c-19.28,20.87-26.87,45.48-22.58,73.51a82,82,0,0,0,26.31,49c21,19.22,45.77,26.76,73.76,21.89,28.42-5,49.38-20.87,62.4-46.52,11.13-21.93,12-44.83,3.9-68.06a1.88,1.88,0,0,1,.39-2.27Q393.78,233,420.1,204.66c4.06-4.37,8.16-8.71,11.46-13.72,1-1.47,1.9-3,2.89-4.53.28.37.52.64.71,1,3.23,5.18,6.69,10.23,9.64,15.57,6.58,11.88,11.71,24.36,14.23,37.79a46.62,46.62,0,0,1,.37,17.89,2.31,2.31,0,0,1-1.27,1.72Q442,269.6,425.9,278.9a1.45,1.45,0,0,0-.88,1.61,139.52,139.52,0,0,1,0,25.28,1.52,1.52,0,0,0,.94,1.69c10.31,5.92,20.57,11.92,30.92,17.78a4.85,4.85,0,0,1,2.69,3.63C459.84,330.49,460.16,332.08,460.45,333.68Z" transform="translate(-111.42 -91.05)"/><path d="M332.53,278.09c-4.86-4.82-9.63-9.47-14.32-14.2Q310.41,256,302.72,248c-17.22-17.86-34.47-35.7-50.52-54.65a134.48,134.48,0,0,1-9.36-12.19c-4-6-5.78-12.82-6.63-19.9-1.16-9.66-.73-19.24,2.62-28.43C247.2,110,263.4,96,287.5,91.92c16-2.72,30.83,1,44.25,10.21l.62.41c.79-.52,1.59-1.08,2.4-1.6A61.18,61.18,0,0,1,422,123.58a60.15,60.15,0,0,1,7,26.87c.23,9.23-1,18.2-4.83,26.69-2.06,4.48-5.08,8.31-8.16,12.09-9.15,11.23-18.94,21.91-28.87,32.44q-14.31,15.17-28.82,30.13c-7.95,8.21-16,16.29-24.06,24.43C333.69,276.85,333.1,277.49,332.53,278.09ZM332,133.73c-2.22-2.3-4.73-4.88-7.22-7.47-8.21-8.52-18.2-12.76-30-12.17a36.89,36.89,0,0,0-27.08,13.38,37.52,37.52,0,0,0-9.08,27c.19,4.46.6,8.95,2.77,12.9a55.4,55.4,0,0,0,6,8.41c11.76,14.28,24.47,27.69,37.19,41.09q9.78,10.29,19.7,20.43c2.69,2.75,5.58,5.31,8.38,8,.16.14.35-.23.63-.51,4.66-4.81,9.37-9.56,14-14.41,9.49-9.94,19.06-19.82,28.36-29.94,7.85-8.54,15.39-17.36,23-26.11,2.09-2.41,4.16-4.89,5.29-8a40.19,40.19,0,0,0,1.47-22c-4-20.19-24.54-33.77-44.68-29.65a40.34,40.34,0,0,0-21.95,12.77C336.69,129.7,334.3,131.63,332,133.73Z" transform="translate(-111.42 -91.05)"/></g></svg>