<svg id="Capa_1" data-name="Capa 1" xmlns="http://www.w3.org/2000/svg" viewBox="0 0 437.26 398.75"><g id="Responsive_rast" data-name="Responsive rast"><path d="M199.85,382.94V332.85H469.63V116H116.81V229.12H95.18V109.35a15.1,15.1,0,0,1,14.46-15.07H475.83a15.11,15.11,0,0,1,15.12,12,17.36,17.36,0,0,1,.35,3.67q0,128.72,0,257.42c0,8-5.1,14.12-12.86,15.48a11.76,11.76,0,0,1-2.06.14H199.85Zm233.66-24.16a8.12,8.12,0,1,0,8.05-8.13A8.06,8.06,0,0,0,433.51,358.78Zm-48.66-5.12a5.13,5.13,0,1,0,5.11,5.2A5.1,5.1,0,0,0,384.85,353.66Zm26.9,0a5.13,5.13,0,1,0,0,10.25,5.13,5.13,0,1,0,0-10.25Z" transform="translate(-54.05 -94.27)"/><path d="M187.31,367.65V482.51A10.15,10.15,0,0,1,179,492.86a12.37,12.37,0,0,1-2.28.15H64.77c-6.35,0-10.72-4.38-10.72-10.76V252.86A10.28,10.28,0,0,1,64.48,242.2h.65q55.59,0,111.16,0c4.05,0,7.29,1.44,9.5,4.89a10.41,10.41,0,0,1,1.53,5.81Q187.31,310.28,187.31,367.65ZM175.58,452v-198H65.82V452Zm-61.66,19a6.78,6.78,0,1,0,6.84-6.72A6.77,6.77,0,0,0,113.92,471Z" transform="translate(-54.05 -94.27)"/><path d="M293.14,464.32H233.52c-1.88,0-2.91-.6-3.39-2a2.88,2.88,0,0,1,.78-3.19c3.73-3.81,7.45-7.64,11.18-11.45q19.47-19.91,38.93-39.8,5-5.07,9.87-10.15a3,3,0,0,1,4.61,0l26.56,27.21,16.84,17.21,16.61,17a2.91,2.91,0,0,1,.75,3.38,2.87,2.87,0,0,1-2.85,1.8H293.14Z" transform="translate(-54.05 -94.27)"/><path d="M320.86,300c2.57,0,5.08.13,7.57,0,3.77-.25,7.29-1.28,10-4.15,2.39-2.52,3.34-5.65,3.77-9,.63-4.94.07-9.85-.54-14.76-.83-6.62-1.81-13.23-2.39-19.87a33.83,33.83,0,0,1,2.47-16.85A20.44,20.44,0,0,1,351.49,225c.21-.1.42-.22.58-.31-1.54-1-3.16-1.95-4.59-3.1-4.43-3.57-6.66-8.41-7.67-13.89-1.1-5.93-.63-11.85.1-17.78.85-6.84,1.78-13.67,2.49-20.53a26.68,26.68,0,0,0-.62-9c-1.43-6-5.17-9.45-11.28-10.18-2.62-.31-5.29-.25-7.93-.35-.54,0-1.08,0-1.69,0V134.12c3.25,0,6.48-.13,9.69,0a38.78,38.78,0,0,1,16.05,4c8.33,4.27,12.85,11.26,14.32,20.35,1,6.16.4,12.31-.32,18.45-.88,7.5-1.86,15-2.59,22.49a33.6,33.6,0,0,0,.3,7.69c.71,5.11,3.83,8.24,8.77,9.35,2.84.63,5.8.78,8.83,1.17v14.51c-1.61.09-3.26.12-4.91.28-3.34.32-6.51,1.16-9.09,3.47a12.22,12.22,0,0,0-3.94,9.8c.13,5.11.54,10.22,1.14,15.29.94,7.93,2.47,15.79,2.29,23.82a35.53,35.53,0,0,1-3.89,16.47c-3.91,7.24-10.22,11.29-18,13.28a46.15,46.15,0,0,1-11.22,1.38h-7.44Z" transform="translate(-54.05 -94.27)"/><path d="M234.16,224.64c8.47,4,12,11.12,12.77,19.87.65,7.4-.23,14.71-1.41,22-1,6.35-2,12.71-1.38,19.16a25.12,25.12,0,0,0,1.37,6.25c2,5.38,6.34,7.62,11.76,8,2.74.19,5.5,0,8.34,0v15.81a.58.58,0,0,1-.18.11c-7,.12-14,.23-20.81-2-10.55-3.44-16.68-10.73-18.82-21.51a55.1,55.1,0,0,1-.31-17.24c.78-6.59,1.86-13.15,2.57-19.75a61.89,61.89,0,0,0,.33-11c-.48-6.87-4.49-10.88-11.34-11.81-2.15-.3-4.33-.38-6.53-.56V217.4c1.7-.09,3.33-.08,4.94-.28a29.09,29.09,0,0,0,5-1c5-1.55,7.41-5.2,7.95-10.23a62.36,62.36,0,0,0-.54-14.12c-.83-6.88-1.85-13.73-2.59-20.62a42.65,42.65,0,0,1,1.26-17.26c3.05-9.82,9.91-15.59,19.6-18.28a45.92,45.92,0,0,1,11.95-1.58c2.5,0,5,0,7.54,0v15.84c-.45,0-.9,0-1.35,0a87.3,87.3,0,0,0-9,.4c-6,.84-9.57,4.54-10.72,10.57a46.8,46.8,0,0,0-.09,14.42c.73,6,1.73,12,2.34,18s.74,11.82-.94,17.62a20.56,20.56,0,0,1-10.93,13.29C234.7,224.32,234.48,224.45,234.16,224.64Z" transform="translate(-54.05 -94.27)"/></g></svg>