<svg id="Capa_1" data-name="Capa 1" xmlns="http://www.w3.org/2000/svg" viewBox="0 0 420.07 229.71"><g id="Next_Gen_rast" data-name="Next Gen rast"><path d="M406.79,135.84l4.51.41c5.42.52,10.76,1.44,15.7,3.84a36,36,0,0,1,4.82,3.16,2.46,2.46,0,0,1,1,2.23c0,6,0,12.09,0,18.14a1.51,1.51,0,0,0,1,1.56c3.55,2,7.07,4,10.56,6.11a1.28,1.28,0,0,0,1.56.05c5.43-3.16,10.86-6.31,16.33-9.4a2.69,2.69,0,0,1,1.83-.24,19.67,19.67,0,0,1,8.27,4.74,63,63,0,0,1,13.29,17.34,68.22,68.22,0,0,1,7.54,19.75,25.83,25.83,0,0,1,.33,9.36,1.84,1.84,0,0,1-1,1.42c-5.42,3.1-10.82,6.25-16.24,9.35a1.39,1.39,0,0,0-.79,1.46q.06,6.19,0,12.41a1.38,1.38,0,0,0,.79,1.45c5.34,3.05,10.64,6.15,16,9.19a2.4,2.4,0,0,1,1.25,1.65,22.76,22.76,0,0,1-.33,10.76c-2.28,9.42-6.84,17.73-12.52,25.47a49.89,49.89,0,0,1-12,12.19,42.78,42.78,0,0,1-5.13,2.64,1.37,1.37,0,0,1-1.05-.05c-3.75-2.13-7.48-4.3-11.32-6.52.16-.36.32-.69.45-1,1.22-3.11,2.62-6.17,3.59-9.35a14.41,14.41,0,0,0-.5-9.25A86.53,86.53,0,0,0,443.1,253a1.22,1.22,0,0,1-.1-1.47,43.54,43.54,0,0,0,4.79-20.16,45.2,45.2,0,0,0-87-17.14,1,1,0,0,1-1.2.76,218.29,218.29,0,0,0-27.43.21c-5.07.34-10.12.81-15.18,1.2a2.06,2.06,0,0,1-1-.22,19.46,19.46,0,0,0-2.43-1.36c-1.55-.57-1.83-1.77-1.94-3.18a31.26,31.26,0,0,1,1.26-11.26,74.39,74.39,0,0,1,18.57-32.45c2.79-2.82,5.92-5.21,9.88-6.18A2.56,2.56,0,0,1,343,162q8.11,4.61,16.15,9.31a1.44,1.44,0,0,0,1.74,0c3.46-2.07,6.95-4.1,10.47-6.06a1.49,1.49,0,0,0,1-1.54c0-6.11,0-12.23,0-18.35a2,2,0,0,1,.84-1.74,29.68,29.68,0,0,1,11.18-5.21A70.26,70.26,0,0,1,400.11,136a7.17,7.17,0,0,0,.88-.17Z" transform="translate(-73.88 -135.84)"/><path d="M224.53,317.14l-6.39-1.56V313c-1.91,0-3.73,0-5.55,0a.93.93,0,0,0-.59.47c-6.27,11.36-16.2,18.33-27.87,23.17a99.12,99.12,0,0,1-28.07,6.81,89.26,89.26,0,0,1-22.63-.08c-4.42-.67-8.75-1.89-13.11-2.94-3.08-.74-6.13-1.63-9.2-2.45-.35-.1-.7-.23-1.19-.38,8-5.73,16.2-10.81,23.74-17.2l-2-.51a71.5,71.5,0,0,1-25.89-13.07c-4-3.1-7.92-6.35-11.67-9.77a173,173,0,0,0-19-15c-.36-.24-.71-.51-1.19-.86.82-.58,1.52-1.12,2.26-1.6,7.43-4.92,14.07-10.8,20.69-16.73,6.83-6.12,14.1-11.66,22.39-15.72a65.5,65.5,0,0,1,13.39-4.89l1-.28c-7.49-6.36-15.75-11.45-23.78-17.22,2.18-.58,4.18-1.14,6.19-1.66,4.7-1.22,9.38-2.61,14.13-3.59a75.38,75.38,0,0,1,18.68-1.09A102.44,102.44,0,0,1,186,226.48c8.07,3.53,15.33,8.27,21,15.11a78.42,78.42,0,0,1,4.82,7,1.39,1.39,0,0,0,1.36.82c1.62,0,3.24,0,5,0,0-1.27,0-2.43,0-3.59,0-.61.18-.84.77-1,1.42-.3,2.82-.68,4.4-1.06l-.77-1c-5.24-6.47-10.59-12.85-15.67-19.44a34.72,34.72,0,0,1-4.54-8c-2-4.85-.54-9.3,3.67-12.45a24.6,24.6,0,0,1,9.78-4,107.94,107.94,0,0,1,21.51-2.08,196.07,196.07,0,0,1,27.09,1.28c4.25.52,8.46,1.32,12.66,2.09,5.3,1,9.58,3.93,13.64,7.29a79.11,79.11,0,0,1,16.22,18.72,1.32,1.32,0,0,0,1.46.74c9.1-.88,18.2-1.87,27.33-2.47a194.86,194.86,0,0,1,29.39.34c14,1.21,27.67,3.94,40.54,9.85,19.76,9.07,33.18,24,40.59,44.36a3.52,3.52,0,0,1,0,2.65A79,79,0,0,1,430.59,308a77.26,77.26,0,0,1-28.27,19.44A117.11,117.11,0,0,1,373,334.93a186,186,0,0,1-22.62,1.53,279.89,279.89,0,0,1-32.87-1.72c-2.74-.29-5.49-.57-8.23-.94a1.19,1.19,0,0,0-1.39.67,75.93,75.93,0,0,1-12.53,16,119.16,119.16,0,0,1-9.91,8.15c-3.19,2.41-7.06,3.25-10.89,4a167.51,167.51,0,0,1-27.28,2.76,173.35,173.35,0,0,1-21-.47c-5.54-.48-11.07-1.14-16.26-3.32A20.21,20.21,0,0,1,205.5,359a10,10,0,0,1-3.29-12,30.41,30.41,0,0,1,4.91-8.48c5.38-6.75,10.88-13.41,16.33-20.1Zm173-70.09-1.17-.5c-10.36-4.21-21.22-6.23-32.3-7.21a213.07,213.07,0,0,0-34.36,0c-13.19,1-26.29,2.75-39.33,5-19,3.26-37.84,7.43-56.61,11.87-.92.21-1.11.6-1.11,1.45q0,22.6,0,45.2c0,1,.32,1.34,1.26,1.55,13.45,2.93,26.86,6,40.34,8.81a454.51,454.51,0,0,0,46.42,7.2,249,249,0,0,0,37.34,1.24,128.58,128.58,0,0,0,28.2-4.22c3.54-1,7-2.23,10.62-3.39-5.75-10.65-8-21.88-7.89-33.62S391.55,257.43,397.58,247.05ZM149.66,327.62l.23.46c4.7-.7,9.44-1.24,14.11-2.14a64.2,64.2,0,0,0,22.51-8.55c5.17-3.28,9.43-7.41,12.07-13.05a3.36,3.36,0,0,0,.29-2.38,13.85,13.85,0,0,1-.35-3.28q0-17.52,0-35c0-1.23.3-2.46.4-3.69a3.24,3.24,0,0,0-.16-1.49,25,25,0,0,0-4.57-7.1c-4.71-5.25-10.65-8.62-17.1-11.17a87.23,87.23,0,0,0-23.53-5.42c-1.23-.12-2.47-.18-3.7-.26l-.14.28c7.49,6.16,11.15,15,16.31,23l-4.91-.34c-4.51-.31-9-.78-13.54-.87a46,46,0,0,0-22.75,5.69c-6.61,3.52-12.37,8.18-18,13.1-2.14,1.89-4.26,3.81-6.46,5.77l3.91,3.52a119.49,119.49,0,0,0,17.18,13.47c7.25,4.45,15,7.43,23.59,7.48,6,.05,12.07-.58,18.1-.91l2.82-.16C160.83,312.65,157.13,321.45,149.66,327.62Zm141.18,3.57c-.37-.11-.56-.18-.75-.22-15.76-2.64-31.39-5.9-46.94-9.52a1.54,1.54,0,0,0-2,.73,13.74,13.74,0,0,1-1.22,1.54q-7.8,9.34-15.59,18.7c-1.44,1.74-2.79,3.58-4.27,5.48a12,12,0,0,0,1.37.27c5.26.43,10.51,1.06,15.78,1.21a162.73,162.73,0,0,0,33.2-2.27c2.67-.48,5.31-1,7.58-2.79a60.13,60.13,0,0,0,9.81-9.32C288.85,333.78,289.8,332.53,290.84,331.19Zm-1.21-101.53c-.16-.24-.26-.45-.4-.63A53,53,0,0,0,277.5,217.7a11.81,11.81,0,0,0-3.52-1.65,89.88,89.88,0,0,0-16.56-2.49,175.59,175.59,0,0,0-32.18.05c-1.65.17-3.29.48-5.14.75,1.06,1.39,1.91,2.61,2.85,3.75,5.8,7,11.61,14,17.4,21,.46.56.91.44,1.46.32,11.1-2.37,22.19-4.78,33.3-7.08C279.9,231.34,284.73,230.55,289.63,229.66Zm119.15,77.88a6.21,6.21,0,0,0,.56-.35,59.23,59.23,0,0,0,21.41-26.3,1.8,1.8,0,0,0,0-1.25,59.3,59.3,0,0,0-17.21-23.11c-1.27-1-2.61-2-3.92-3C400.75,266.81,399.76,292.05,408.78,307.54ZM218.07,296.86V265.5h-3.41v31.36Z" transform="translate(-73.88 -135.84)"/><path d="M328.07,249.37a31.79,31.79,0,1,1-31.76,31.25A31.75,31.75,0,0,1,328.07,249.37Zm15.72,31.82a15.69,15.69,0,1,0-15.66,15.73A15.69,15.69,0,0,0,343.79,281.19Z" transform="translate(-73.88 -135.84)"/><path d="M131,281.16c2.32-1.58,4.52-3.06,6.7-4.57a113.75,113.75,0,0,1,22.45-12.52,31.84,31.84,0,0,1,12.56-2.73A29.15,29.15,0,0,1,190,266.82c10.36,7.69,10.32,21.13-.1,28.76a29.14,29.14,0,0,1-16.16,5.36c-5.87.3-11.22-1.58-16.45-3.9A124.21,124.21,0,0,1,136.5,284.9C134.73,283.66,132.93,282.46,131,281.16Zm30.51-.12-.08.34c2.33.91,4.64,1.87,7,2.74a12,12,0,0,0,6.31.62,12.16,12.16,0,0,0,6.05-2.47c1-.9,1.12-1.3,0-2.11a13.6,13.6,0,0,0-3.3-1.86C171.66,276,166.62,278.69,161.53,281Z" transform="translate(-73.88 -135.84)"/></g></svg>