<svg id="Capa_1" data-name="Capa 1" xmlns="http://www.w3.org/2000/svg" viewBox="0 0 382.73 395.93"><g id="Research_rast" data-name="Research rast"><path d="M242.48,490.16l-1.46-.32a10.85,10.85,0,0,1-8.8-10.9q0-32.24,0-64.47a10.73,10.73,0,0,1,5.84-9.92c.53-.29.76-.55.66-1.17-1.64-10.56-3.93-20.94-8.39-30.74-3.09-6.78-7.36-12.79-11.92-18.63-5.32-6.82-10.47-13.75-14.5-21.44a106.39,106.39,0,0,1-9.82-25.78,103.65,103.65,0,0,1-3-23.92c.28-20.71,6.63-39.4,19.38-55.74,14.43-18.5,33.23-30.26,56.35-34.26,30.6-5.3,57.61,2.72,80.39,23.91,14.22,13.24,23.06,29.66,27,48.7a91.17,91.17,0,0,1,.6,31.69A111.73,111.73,0,0,1,364,331c-4,8-9.27,15.26-14.78,22.31-4.65,5.94-9.06,12-12.26,18.93a103.4,103.4,0,0,0-7.41,24.4c-.43,2.24-.75,4.5-1.14,6.74a.9.9,0,0,0,.58,1.11,10.78,10.78,0,0,1,5.89,10.1c0,21.3-.09,42.61.05,63.92,0,6.51-4.93,11.24-10.08,11.45-.13,0-.26.11-.39.17Zm65.67-89.05c.79-4.21,1.49-8.37,2.37-12.5a109.63,109.63,0,0,1,10.39-29.53,131.39,131.39,0,0,1,13.45-19.63c10.39-13.06,17.68-27.5,20.23-44.17a72.22,72.22,0,0,0,.24-23.38,70.55,70.55,0,0,0-21.53-40.46c-16.4-15.38-36-21.89-58.3-19.41a68.77,68.77,0,0,0-43.43,21.61c-15,15.83-21.92,34.65-19.74,56.52a84.45,84.45,0,0,0,2.22,13.14,93.64,93.64,0,0,0,16.65,33.55c4,5.17,8,10.4,11.61,15.83,8,12,12.27,25.4,15,39.41.58,3,1.06,6,1.59,9Zm10.42,72.67V421.44h-70v52.34Z" transform="translate(-92.1 -94.23)"/><path d="M284.66,94.23a23.28,23.28,0,0,1,4.27,2.12,8,8,0,0,1,3.05,6.57q0,31.72,0,63.47a8.55,8.55,0,0,1-8.59,8.54c-4.14.15-7.91-3.49-8.27-8,0-.47-.06-.95-.06-1.43q0-30.9,0-61.81c0-5.18,2.48-8.21,7.57-9.28a.73.73,0,0,0,.26-.17Z" transform="translate(-92.1 -94.23)"/><path d="M92.1,279.94a9.81,9.81,0,0,1,2.58-5,8.75,8.75,0,0,1,6.16-2.52H164.2a8.45,8.45,0,1,1,0,16.89c-5.7,0-11.41,0-17.11,0H101.54c-5.28,0-8.32-2.56-9.27-7.8,0-.09-.11-.17-.17-.26Z" transform="translate(-92.1 -94.23)"/><path d="M434.6,272.43h31.57a8.45,8.45,0,1,1,.05,16.89H402.76a8.56,8.56,0,0,1-8.53-8.83c0-4.33,4-8.06,8.58-8.06Z" transform="translate(-92.1 -94.23)"/><path d="M137.59,152.13c0-4.16,2.06-7.39,5-8.62a8.82,8.82,0,0,1,9.4,1.89q22.48,22.47,44.95,45A8.44,8.44,0,1,1,185,202.3l-45-45A7.75,7.75,0,0,1,137.59,152.13Z" transform="translate(-92.1 -94.23)"/><path d="M367.64,196.41a8.62,8.62,0,0,1,2.61-6.23q22.38-22.35,44.73-44.71a8.62,8.62,0,0,1,12.2,0c3.05,2.91,3.1,8.24.12,11.62l-.53.57q-22.2,22.2-44.41,44.4a8.64,8.64,0,0,1-12.6,0A7.6,7.6,0,0,1,367.64,196.41Z" transform="translate(-92.1 -94.23)"/><path d="M302.17,265a15.7,15.7,0,0,1-.5,2q-13,35.53-26.05,71.06a5.47,5.47,0,0,1-10.47-.13,6.22,6.22,0,0,1,.35-4q7.22-19.65,14.42-39.3,5.81-15.83,11.61-31.65a5.43,5.43,0,0,1,10.45.45A15.44,15.44,0,0,1,302.17,265Z" transform="translate(-92.1 -94.23)"/><path d="M237.57,301l11.62,4.6c3.31,1.31,6.64,2.59,9.93,3.95a5.74,5.74,0,0,1,3.62,5.76,5.53,5.53,0,0,1-4.56,5.13,7.13,7.13,0,0,1-3.63-.42c-9.67-4-19.3-8.09-28.94-12.17a7.23,7.23,0,0,1,0-13.49q12.12-5.13,24.25-10.22l4.78-2c3.16-1.31,6.46-.1,7.69,2.82a5.64,5.64,0,0,1-3.4,7.53q-10,4-20.06,8Z" transform="translate(-92.1 -94.23)"/><path d="M329.51,301.08l-16.57-6.56c-1.6-.64-3.21-1.25-4.81-1.91A5.75,5.75,0,1,1,312.49,282q14.52,6.11,29,12.26a7.23,7.23,0,0,1,0,13.4q-14.61,6.21-29.25,12.32a5.61,5.61,0,1,1-4.24-10.38q10-4,20.07-8Z" transform="translate(-92.1 -94.23)"/></g></svg>