<svg id="Capa_1" data-name="Capa 1" xmlns="http://www.w3.org/2000/svg" viewBox="0 0 414.24 381.84"><g id="Web_Development_-_rast" data-name="Web Development - rast"><path d="M76.8,379.84V106.24a4.21,4.21,0,0,0,.23-.65A16.09,16.09,0,0,1,89.74,92.46c.49-.11,1-.25,1.46-.38H476.64a3.77,3.77,0,0,0,.64.23,15.92,15.92,0,0,1,13,11c.34,1,.53,2,.8,3v273.6a7,7,0,0,0-.24.78A16.12,16.12,0,0,1,475,394q-191,0-382.06,0c-6.47,0-11.31-3.11-14.3-8.84A34.64,34.64,0,0,1,76.8,379.84Zm22.67-38.37h368.9V114.85H99.47ZM439.11,360.2a8.5,8.5,0,1,0,8.49,8.46A8.51,8.51,0,0,0,439.11,360.2Zm-31.27,3.12a5.38,5.38,0,0,0-.09,10.76,5.38,5.38,0,1,0,.09-10.76Zm-33.48,5.37a5.31,5.31,0,0,0,5.25,5.39,5.38,5.38,0,1,0,.11-10.76A5.26,5.26,0,0,0,374.36,368.69Z" transform="translate(-76.8 -92.08)"/><path d="M221,473.92a9.47,9.47,0,0,1-1.71-.77,3.14,3.14,0,0,1-.37-4.91c2.84-3,5.73-5.91,8.6-8.86q18.87-19.29,37.75-38.58,8.06-8.22,16.08-16.48a3.28,3.28,0,0,1,5.06,0q18.45,18.87,36.87,37.76,9.3,9.53,18.62,19c2.07,2.12,4,4.36,6.25,6.31,2.42,2.12,2.36,5.53-1.39,6.5Z" transform="translate(-76.8 -92.08)"/><path d="M329.66,145.21a35.54,35.54,0,0,1-1.12,4.46q-31.87,87.09-63.83,174.15c-2.07,5.65-6.12,8.81-12.15,9.34-6.76.59-13.33-4.79-14.27-11.54a15,15,0,0,1,1-7.39q19-51.84,38-103.66c8.62-23.54,17.34-47,25.83-70.62a13.74,13.74,0,0,1,20.24-7.36C327.62,135.34,329.62,139.37,329.66,145.21Z" transform="translate(-76.8 -92.08)"/><path d="M172,232.83,182.65,237q20.72,8.21,41.43,16.4a14.49,14.49,0,0,1,9.17,14.83,14.32,14.32,0,0,1-11.47,12.56,14,14,0,0,1-8.34-.87c-24-10.12-48-20.18-71.93-30.41-7.21-3.08-10.94-8.93-10.84-16.74.08-7.64,4-13.2,11-16.18q36-15.34,72.17-30.45a14,14,0,1,1,10.48,25.88q-19.9,8-39.85,15.81l-11,4.37C173,232.4,172.61,232.58,172,232.83Z" transform="translate(-76.8 -92.08)"/><path d="M395.83,233.18l-14.35-5.69L343.84,212.6a14.5,14.5,0,0,1-9.26-15.1,14.32,14.32,0,0,1,12-12.44,13.85,13.85,0,0,1,7.75,1q36,15.18,71.92,30.37a17.61,17.61,0,0,1,10.93,16.49c-.26,7.74-3.92,13.47-11.08,16.51q-36,15.32-72.16,30.41A13.95,13.95,0,1,1,343.44,254c13.82-5.53,27.67-11,41.51-16.47C388.47,236.12,392,234.72,395.83,233.18Z" transform="translate(-76.8 -92.08)"/></g></svg>