<svg id="Capa_1" data-name="Capa 1" xmlns="http://www.w3.org/2000/svg" viewBox="0 0 415.9 388.18"><g id="Web_Design_rast" data-name="Web Design rast"><path d="M82.08,480.26c-.39-.15-.78-.31-1.18-.44a7.92,7.92,0,0,1-5.57-7.21q0-.58,0-1.17,0-141.15,0-282.31c0-3.79,1.43-6.65,5-8.16a9.42,9.42,0,0,1,3.66-.64q80.55,0,161.11,0h27.42c-.18.53-.32.95-.47,1.37q-8.5,22.92-17,45.85c-.36,1-.9,1.05-1.74,1.05q-20.88,0-41.74,0H87.08V468.45H479.42V228.62H342c.75-1.58,1.39-3,2.06-4.34q10.43-21.4,20.83-42.82a1.83,1.83,0,0,1,2-1.18q57.81,0,115.62,0c4.52,0,7.27,2.07,8.53,6.41a1.29,1.29,0,0,0,.19.32V473.52c-.71,2.23-1.7,4.29-3.86,5.48a29.52,29.52,0,0,1-2.88,1.26ZM443.34,209.34a8.75,8.75,0,1,0,.05-17.5,8.75,8.75,0,0,0-.05,17.5Zm-55.73-8.61a5.53,5.53,0,1,0-11.06-.27,5.53,5.53,0,1,0,11.06.27Zm18-.22a5.53,5.53,0,1,0,11.06.17,5.53,5.53,0,1,0-11.06-.17Z" transform="translate(-75.28 -92.08)"/><path d="M444.3,370.12v62.11H122.13V370.12h1.55c14.13,0,28.26,0,42.39,0a4.3,4.3,0,0,1,3.11,1.16c5,4.47,10.3,8.57,16.45,11.38,3.13,1.43,6.37,2.61,9.7,4l-20,19.73h1.61c12.83,0,25.17.94,38.5,0,24-2,48.33-18.42,62.54-35.28a2.42,2.42,0,0,1,2.08-.95q81.41,0,162.81,0Z" transform="translate(-75.28 -92.08)"/><path d="M287.16,309.59c.08-3.22-1.38-5.74-3.33-8-4.38-5.13-10.06-8.34-16.32-10.59-4.92-1.77-10-2.82-15.23-2.1a11.17,11.17,0,0,0-6.59,2.95c.21-.6.43-1.21.65-1.81q32.49-87.43,65-174.88c2.28-6.17,5.41-11.61,10.54-15.84,18.75-15.46,47.56-4.77,51.69,19.2a32.68,32.68,0,0,1-3.26,20.59c-6,12.05-11.83,24.18-17.72,36.28q-9.94,20.42-19.86,40.84-16.59,34.08-33.19,68.17-6,12.35-12,24.66A5.89,5.89,0,0,1,287.16,309.59Z" transform="translate(-75.28 -92.08)"/><path d="M443.37,302.11H306.18l3.19-6.59q10.42-21.4,20.82-42.83a1.94,1.94,0,0,1,2.06-1.24q54.76,0,109.53,0h1.59Z" transform="translate(-75.28 -92.08)"/><path d="M176.21,358.23c12.82-1.18,23.19-7.16,32.34-15.64,7.29-6.76,13-14.77,17.84-23.39,1.61-2.84,2.85-6,4.91-8.46,8-9.59,18.34-13.15,30.38-10s19.13,11.2,21.6,23.32a28,28,0,0,1-2.89,19c-10.33,19.68-25.17,34.67-45.83,43.48a79.69,79.69,0,0,1-24.05,5.85c-.67.06-1.34.06-2.34.11,7.62-6.71,15.35-12.81,21.1-21C208.7,378.3,190.87,374.52,176.21,358.23Z" transform="translate(-75.28 -92.08)"/><path d="M291.86,350.84a46.19,46.19,0,0,0,5-14.36,43,43,0,0,0-.15-15.05H444.31v29.41Z" transform="translate(-75.28 -92.08)"/><path d="M122.11,350.81V321.43h86.74c-2.08,2.62-3.9,5.12-5.92,7.45A45.32,45.32,0,0,1,171.77,345c-3.13.3-6.24.82-9.49,1.26v4.59Z" transform="translate(-75.28 -92.08)"/></g></svg>