<svg id="svg" version="1.1" xmlns="http://www.w3.org/2000/svg" xmlns:xlink="http://www.w3.org/1999/xlink" width="400" height="400" viewBox="0, 0, 400,400"><g id="svgg"><path id="path0" d="M78.872 175.633 C 78.613 176.049,78.400 176.921,78.400 177.571 C 78.400 178.221,78.220 178.864,78.000 179.000 C 77.780 179.136,77.600 179.766,77.600 180.400 C 77.600 181.034,77.420 181.664,77.200 181.800 C 76.980 181.936,76.800 182.476,76.800 183.000 C 76.800 183.524,76.620 184.064,76.400 184.200 C 76.180 184.336,76.000 184.797,76.000 185.224 C 76.000 185.651,75.820 186.000,75.600 186.000 C 75.380 186.000,75.200 186.234,75.200 186.520 C 75.200 187.256,74.259 189.193,73.900 189.197 C 73.735 189.199,73.600 189.393,73.600 189.628 C 73.600 192.280,65.126 200.115,59.770 202.414 C 54.473 204.688,50.907 205.258,40.000 205.572 C 34.830 205.721,30.546 205.878,30.481 205.922 C 28.655 207.126,26.887 209.644,26.635 211.400 C 26.477 212.500,26.194 214.300,26.006 215.400 C 25.467 218.549,24.764 222.793,24.366 225.300 C 24.165 226.565,23.826 228.635,23.613 229.900 C 23.400 231.165,23.061 233.370,22.859 234.800 C 22.441 237.760,21.809 239.600,21.210 239.600 C 20.984 239.600,20.800 240.500,20.800 241.600 C 20.800 242.700,20.620 243.600,20.400 243.600 C 19.634 243.600,19.908 250.042,20.700 250.643 C 21.237 251.051,23.709 251.178,31.340 251.187 L 41.280 251.200 42.640 249.840 C 43.886 248.594,44.000 248.278,44.000 246.064 C 44.000 244.735,44.180 243.536,44.400 243.400 C 44.620 243.264,44.800 242.083,44.800 240.776 C 44.800 239.469,44.964 238.400,45.164 238.400 C 45.365 238.400,45.630 237.365,45.753 236.100 C 46.261 230.891,46.492 229.381,46.837 229.020 C 47.037 228.811,47.200 227.675,47.200 226.496 C 47.200 225.169,47.352 224.447,47.600 224.600 C 47.820 224.736,48.000 224.685,48.000 224.488 C 48.000 223.660,50.217 223.256,55.326 223.154 C 58.310 223.094,60.662 222.900,60.552 222.723 C 60.443 222.545,61.263 222.400,62.376 222.400 C 63.489 222.400,64.400 222.244,64.400 222.052 C 64.400 221.861,65.021 221.604,65.780 221.481 C 67.324 221.230,69.662 220.227,71.262 219.129 C 71.846 218.728,72.621 218.400,72.985 218.400 C 73.349 218.400,73.536 218.220,73.400 218.000 C 73.264 217.780,73.367 217.600,73.628 217.600 C 74.216 217.600,80.000 211.788,80.000 211.196 C 80.000 210.960,80.360 210.380,80.800 209.908 C 81.240 209.436,81.600 208.813,81.600 208.525 C 81.600 208.236,81.780 208.000,82.000 208.000 C 82.220 208.000,82.400 207.561,82.400 207.024 C 82.400 206.487,82.580 205.936,82.800 205.800 C 83.020 205.664,83.200 205.203,83.200 204.776 C 83.200 204.349,83.380 204.000,83.600 204.000 C 83.820 204.000,84.000 203.370,84.000 202.600 C 84.000 201.830,84.162 201.200,84.360 201.200 C 85.216 201.200,86.034 185.074,85.220 184.260 C 84.989 184.029,84.800 183.552,84.800 183.200 C 84.800 182.369,83.888 180.407,83.500 180.403 C 83.335 180.401,83.200 179.939,83.200 179.376 C 83.200 178.813,83.040 178.452,82.844 178.573 C 82.648 178.694,82.200 178.187,81.848 177.445 C 80.921 175.490,79.501 174.626,78.872 175.633 M285.243 175.825 C 284.559 176.400,284.000 177.215,284.000 177.636 C 284.000 178.056,283.836 178.400,283.636 178.400 C 283.435 178.400,283.176 179.435,283.059 180.700 C 282.532 186.433,282.286 188.214,281.996 188.400 C 281.703 188.588,281.502 190.018,280.958 195.800 C 280.834 197.120,280.568 198.371,280.366 198.580 C 280.165 198.789,280.000 199.925,280.000 201.104 C 280.000 202.283,279.862 203.162,279.693 203.057 C 279.523 202.953,279.330 203.975,279.263 205.328 C 279.196 206.682,279.006 207.882,278.841 207.995 C 278.677 208.108,278.500 209.094,278.448 210.187 C 278.396 211.279,278.219 212.359,278.054 212.587 C 277.890 212.814,277.707 214.077,277.649 215.394 C 277.591 216.710,277.407 217.880,277.240 217.994 C 277.073 218.107,276.894 219.184,276.844 220.388 C 276.794 221.591,276.613 222.761,276.442 222.988 C 276.271 223.214,276.096 224.210,276.053 225.200 C 276.010 226.190,275.817 227.540,275.623 228.200 C 275.430 228.860,275.280 229.670,275.290 230.000 C 275.300 230.330,275.173 231.635,275.008 232.900 C 274.799 234.505,274.843 235.200,275.154 235.200 C 275.399 235.200,275.600 235.470,275.600 235.800 C 275.600 236.611,290.557 236.708,291.070 235.900 C 291.375 235.419,291.790 232.641,292.252 228.000 C 292.372 226.790,292.635 225.629,292.835 225.420 C 293.036 225.211,293.200 223.985,293.200 222.696 C 293.200 221.236,293.351 220.446,293.600 220.600 C 293.839 220.747,294.000 220.261,294.000 219.395 C 294.000 216.469,295.353 216.000,303.795 216.000 C 308.198 216.000,310.800 215.851,310.800 215.600 C 310.800 215.380,311.253 215.200,311.806 215.200 C 313.091 215.200,316.000 214.300,316.000 213.903 C 316.000 213.736,316.450 213.600,317.000 213.600 C 317.550 213.600,318.000 213.420,318.000 213.200 C 318.000 212.980,318.270 212.800,318.600 212.800 C 318.930 212.800,319.200 212.620,319.200 212.400 C 319.200 212.180,319.393 212.000,319.629 212.000 C 319.864 212.000,320.323 211.734,320.648 211.409 C 320.973 211.084,321.462 210.679,321.734 210.509 C 322.657 209.932,325.200 206.521,325.200 205.859 C 325.200 205.496,325.380 205.200,325.600 205.200 C 325.820 205.200,326.000 204.930,326.000 204.600 C 326.000 204.270,326.180 204.000,326.400 204.000 C 326.620 204.000,326.800 203.550,326.800 203.000 C 326.800 202.450,326.980 202.000,327.200 202.000 C 327.420 202.000,327.600 201.460,327.600 200.800 C 327.600 200.140,327.780 199.600,328.000 199.600 C 328.220 199.600,328.400 198.711,328.400 197.624 C 328.400 196.537,328.588 195.531,328.817 195.389 C 329.077 195.229,329.212 193.184,329.176 189.968 C 329.142 187.042,328.962 184.900,328.758 185.026 C 328.561 185.148,328.400 184.912,328.400 184.503 C 328.400 183.591,327.511 181.607,327.100 181.603 C 326.935 181.601,326.800 181.360,326.800 181.066 C 326.800 180.516,324.652 178.400,324.092 178.400 C 323.920 178.400,323.335 178.089,322.793 177.710 C 322.251 177.330,321.460 176.967,321.035 176.902 C 320.610 176.837,320.024 176.586,319.731 176.343 C 319.439 176.101,319.200 176.010,319.200 176.141 C 319.200 176.273,318.705 176.183,318.100 175.943 C 316.259 175.211,313.537 175.059,299.743 174.916 L 286.486 174.779 285.243 175.825 M387.635 175.491 C 386.483 175.708,385.600 176.513,385.600 177.348 C 385.600 177.681,385.420 178.064,385.200 178.200 C 384.980 178.336,384.800 179.506,384.800 180.800 C 384.800 182.094,384.620 183.264,384.400 183.400 C 384.180 183.536,384.000 184.526,384.000 185.600 C 384.000 186.674,383.820 187.664,383.600 187.800 C 383.380 187.936,383.200 189.171,383.200 190.544 C 383.200 191.917,383.036 193.211,382.835 193.420 C 382.635 193.629,382.361 194.880,382.227 196.200 C 382.093 197.520,381.882 199.636,381.756 200.902 C 381.631 202.167,381.392 203.118,381.224 203.015 C 381.056 202.911,380.886 203.924,380.846 205.265 C 380.806 206.606,380.599 208.029,380.386 208.426 C 380.174 208.823,380.000 209.959,380.000 210.950 C 380.000 211.942,379.850 212.846,379.666 212.959 C 379.483 213.072,379.292 214.298,379.243 215.683 C 379.194 217.067,378.984 218.371,378.777 218.580 C 378.570 218.789,378.400 219.813,378.400 220.856 C 378.400 221.899,378.220 222.864,378.000 223.000 C 377.780 223.136,377.600 224.306,377.600 225.600 C 377.600 226.894,377.420 228.064,377.200 228.200 C 376.980 228.336,376.800 229.506,376.800 230.800 C 376.800 232.094,376.619 233.265,376.397 233.402 C 375.936 233.687,376.124 235.137,376.781 236.365 C 377.205 237.157,377.551 237.200,383.433 237.200 C 390.495 237.200,391.600 236.732,391.600 233.742 C 391.600 233.004,391.780 232.400,392.000 232.400 C 392.222 232.400,392.400 231.341,392.400 230.024 C 392.400 228.717,392.580 227.536,392.800 227.400 C 393.020 227.264,393.200 226.173,393.200 224.976 C 393.200 223.779,393.349 222.800,393.532 222.800 C 393.714 222.800,393.904 221.765,393.955 220.500 C 394.005 219.235,394.216 218.029,394.423 217.820 C 394.630 217.611,394.800 216.432,394.800 215.200 C 394.800 213.968,394.964 212.789,395.165 212.580 C 395.365 212.371,395.631 211.210,395.756 210.000 C 396.316 204.541,396.497 203.376,396.837 203.020 C 397.037 202.811,397.200 201.632,397.200 200.400 C 397.200 199.168,397.364 197.989,397.565 197.780 C 397.765 197.571,398.038 196.320,398.171 195.000 C 398.762 189.111,398.900 188.174,399.240 187.759 C 400.062 186.752,400.191 176.329,399.388 175.742 C 398.665 175.213,390.081 175.030,387.635 175.491 M304.000 189.118 C 304.000 189.293,304.675 189.479,305.500 189.531 C 308.455 189.716,310.431 191.071,310.542 192.987 C 310.574 193.544,310.735 194.000,310.900 194.000 C 311.065 194.000,311.200 194.510,311.200 195.133 C 311.200 195.757,311.065 196.402,310.900 196.567 C 310.735 196.732,310.590 196.987,310.577 197.133 C 310.398 199.251,308.614 202.000,307.419 202.000 C 307.079 202.000,306.800 202.180,306.800 202.400 C 306.800 202.620,306.271 202.800,305.624 202.800 C 304.977 202.800,304.336 202.980,304.200 203.200 C 304.063 203.421,302.263 203.600,300.176 203.600 L 296.400 203.600 296.400 201.376 C 296.400 199.996,296.552 199.247,296.800 199.400 C 297.048 199.553,297.200 198.812,297.200 197.447 C 297.200 196.237,297.380 195.136,297.600 195.000 C 297.820 194.864,298.000 193.825,298.000 192.690 C 298.000 189.855,299.006 188.857,301.900 188.824 C 303.055 188.811,304.000 188.943,304.000 189.118 M342.800 194.485 C 342.800 194.658,342.438 194.800,341.995 194.800 C 341.552 194.800,340.877 194.968,340.495 195.174 C 340.113 195.379,339.215 195.783,338.500 196.071 C 337.785 196.360,337.200 196.731,337.200 196.898 C 337.200 197.064,336.958 197.200,336.662 197.200 C 336.366 197.200,335.797 197.561,335.398 198.002 C 334.998 198.444,334.592 198.726,334.496 198.629 C 334.300 198.433,331.917 200.483,330.633 201.953 C 330.175 202.477,329.562 203.152,329.271 203.453 C 328.981 203.754,328.853 204.000,328.987 204.000 C 329.121 204.000,328.864 204.394,328.416 204.875 C 327.967 205.357,327.600 205.951,327.600 206.195 C 327.600 206.440,327.375 206.865,327.100 207.140 C 326.825 207.415,326.594 207.766,326.586 207.920 C 326.578 208.074,326.362 208.577,326.105 209.038 C 325.551 210.033,325.172 211.574,324.911 213.900 C 324.805 214.835,324.558 215.600,324.360 215.600 C 324.162 215.600,324.000 217.400,324.000 219.600 C 324.000 222.000,324.160 223.600,324.400 223.600 C 324.620 223.600,324.800 224.140,324.800 224.800 C 324.800 225.460,324.991 226.000,325.224 226.000 C 325.457 226.000,325.538 226.176,325.405 226.392 C 325.272 226.607,325.390 227.192,325.666 227.692 C 325.943 228.191,326.132 228.735,326.085 228.900 C 326.038 229.065,326.210 229.200,326.467 229.200 C 326.723 229.200,326.822 229.311,326.686 229.448 C 326.550 229.584,326.655 229.938,326.919 230.234 C 327.998 231.442,328.400 231.979,328.400 232.212 C 328.400 232.347,328.670 232.727,329.000 233.057 C 329.330 233.387,329.600 233.547,329.600 233.413 C 329.600 233.279,329.994 233.536,330.475 233.984 C 330.957 234.433,331.587 234.800,331.875 234.800 C 332.164 234.800,332.401 234.935,332.403 235.100 C 332.408 235.547,334.426 236.400,335.480 236.400 C 335.986 236.400,336.400 236.580,336.400 236.800 C 336.400 237.315,346.552 237.339,347.505 236.827 C 347.887 236.621,349.055 236.222,350.100 235.939 C 351.145 235.657,352.000 235.285,352.000 235.113 C 352.000 234.941,352.345 234.800,352.767 234.800 C 353.188 234.800,353.593 234.636,353.667 234.437 C 354.042 233.414,355.413 233.844,355.783 235.100 L 356.165 236.400 362.813 236.400 C 369.193 236.400,369.494 236.364,370.294 235.500 C 371.387 234.318,372.454 229.869,372.973 224.321 C 373.070 223.288,373.349 222.069,373.593 221.613 C 373.837 221.157,373.955 220.651,373.855 220.488 C 373.754 220.326,373.849 219.385,374.066 218.397 C 374.513 216.352,375.536 208.634,375.855 204.898 C 375.972 203.521,376.233 202.497,376.434 202.621 C 377.367 203.198,376.824 196.788,375.859 195.822 C 373.462 193.426,361.200 194.639,361.200 197.272 C 361.200 198.186,360.873 198.194,360.047 197.300 C 359.114 196.291,357.112 195.249,354.761 194.551 C 352.601 193.910,342.800 193.855,342.800 194.485 M352.400 207.312 C 354.128 207.719,355.200 208.115,355.200 208.346 C 355.200 208.488,355.740 208.844,356.400 209.136 C 357.131 209.459,357.600 209.967,357.600 210.434 C 357.600 210.855,357.780 211.200,358.000 211.200 C 358.220 211.200,358.400 211.472,358.400 211.805 C 358.400 212.138,358.614 212.753,358.875 213.172 C 359.352 213.936,358.760 216.826,357.930 217.780 C 357.749 217.989,357.600 218.478,357.600 218.866 C 357.600 220.107,352.704 224.654,351.029 224.968 C 348.699 225.405,344.000 225.523,344.000 225.144 C 344.000 224.955,343.716 224.800,343.369 224.800 C 342.663 224.800,340.369 222.661,340.253 221.895 C 340.211 221.623,340.047 221.191,339.887 220.935 C 339.475 220.277,339.404 215.195,339.790 214.008 C 341.424 208.981,346.974 206.034,352.400 207.312 " stroke="none" fill="#149bd3" fill-rule="evenodd"></path><path id="path1" d="M15.168 148.587 C 13.611 149.443,12.136 151.975,11.773 154.418 C 11.594 155.618,11.427 156.690,11.400 156.800 C 11.352 157.001,10.928 160.064,10.551 162.941 C 10.440 163.788,10.189 164.903,9.993 165.418 C 9.797 165.933,9.699 166.995,9.775 167.777 C 9.851 168.560,9.775 169.200,9.606 169.200 C 9.299 169.200,9.013 171.224,8.543 176.709 C 8.406 178.309,8.138 179.715,7.947 179.833 C 7.756 179.951,7.600 181.081,7.600 182.344 C 7.600 183.607,7.436 184.811,7.235 185.020 C 6.890 185.380,6.675 186.906,6.156 192.700 C 6.033 194.075,5.767 195.200,5.566 195.200 C 5.365 195.200,5.200 196.381,5.200 197.824 C 5.200 199.267,5.050 200.355,4.868 200.242 C 4.685 200.129,4.495 201.032,4.446 202.250 C 4.397 203.467,4.186 204.910,3.978 205.457 C 3.770 206.004,3.600 207.340,3.600 208.426 C 3.600 209.512,3.420 210.400,3.200 210.400 C 2.974 210.400,2.800 211.533,2.800 213.000 C 2.800 214.467,2.626 215.600,2.400 215.600 C 2.174 215.600,2.000 216.733,2.000 218.200 C 2.000 219.630,1.851 220.800,1.668 220.800 C 1.486 220.800,1.296 221.821,1.245 223.070 C 1.195 224.318,0.981 225.662,0.770 226.057 C 0.144 227.227,-0.198 237.682,0.356 238.717 C 0.839 239.620,19.769 240.148,21.035 239.294 C 21.275 239.132,21.873 236.480,22.364 233.400 C 22.855 230.320,23.409 226.990,23.595 226.000 C 23.780 225.010,24.134 222.850,24.381 221.200 C 24.627 219.550,25.003 217.432,25.215 216.494 C 25.427 215.556,25.608 214.296,25.618 213.694 C 25.649 211.754,26.640 208.721,27.378 208.308 C 27.818 208.062,27.933 207.806,27.676 207.647 C 27.402 207.477,27.373 206.768,27.593 205.594 C 27.777 204.607,28.131 202.450,28.378 200.800 C 28.626 199.150,29.002 196.675,29.214 195.300 C 30.032 190.004,30.414 187.508,30.791 184.998 C 32.505 173.590,32.652 172.975,33.895 171.997 C 35.459 170.767,65.921 170.768,69.972 171.999 C 79.147 174.786,79.259 174.778,79.147 171.360 C 79.108 170.156,78.924 169.076,78.738 168.962 C 78.552 168.847,78.400 167.784,78.400 166.600 C 78.400 165.416,78.220 164.336,78.000 164.200 C 77.780 164.064,77.600 163.524,77.600 163.000 C 77.600 162.476,77.420 161.936,77.200 161.800 C 76.980 161.664,76.800 161.203,76.800 160.776 C 76.800 160.349,76.650 160.000,76.468 160.000 C 76.285 160.000,75.880 159.505,75.568 158.900 C 74.787 157.388,70.218 152.963,68.778 152.326 C 68.130 152.039,67.600 151.669,67.600 151.502 C 67.600 151.336,67.238 151.200,66.795 151.200 C 66.352 151.200,65.632 151.020,65.195 150.800 C 64.758 150.580,64.042 150.220,63.605 150.000 C 63.168 149.780,62.268 149.600,61.605 149.600 C 60.942 149.600,60.400 149.435,60.400 149.233 C 60.400 148.189,17.020 147.569,15.168 148.587 M131.200 175.200 C 131.200 175.420,130.961 175.600,130.670 175.600 C 129.297 175.600,128.184 177.677,127.811 180.937 C 127.688 182.002,127.422 183.185,127.219 183.565 C 127.016 183.944,126.865 184.793,126.883 185.449 C 126.902 186.106,126.726 187.534,126.492 188.622 C 126.258 189.710,126.046 191.050,126.022 191.600 C 125.889 194.538,125.486 197.445,125.165 197.780 C 124.964 197.989,124.800 199.114,124.800 200.280 C 124.800 201.446,124.620 202.400,124.400 202.400 C 124.174 202.400,124.000 203.533,124.000 205.000 C 124.000 206.467,123.826 207.600,123.600 207.600 C 123.378 207.600,123.200 208.667,123.200 210.000 C 123.200 211.333,123.022 212.400,122.800 212.400 C 122.578 212.400,122.400 213.459,122.400 214.776 C 122.400 216.083,122.220 217.264,122.000 217.400 C 121.780 217.536,121.600 218.616,121.600 219.800 C 121.600 220.984,121.420 222.064,121.200 222.200 C 120.980 222.336,120.800 223.517,120.800 224.824 C 120.800 226.141,120.622 227.200,120.400 227.200 C 120.178 227.200,120.000 228.267,120.000 229.600 C 120.000 230.920,119.857 232.000,119.682 232.000 C 119.033 232.000,119.164 234.897,119.846 235.651 C 120.978 236.902,133.246 236.776,134.565 235.500 C 135.649 234.450,136.400 232.431,136.400 230.564 C 136.400 229.840,136.551 229.154,136.735 229.040 C 136.918 228.927,137.101 227.983,137.141 226.943 C 137.180 225.903,137.383 224.411,137.592 223.626 C 137.801 222.842,138.080 221.168,138.214 219.907 C 138.605 216.197,139.097 216.000,147.962 216.000 C 152.521 216.000,155.200 215.852,155.200 215.600 C 155.200 215.380,155.920 215.200,156.800 215.200 C 157.680 215.200,158.400 215.020,158.400 214.800 C 158.400 214.580,158.850 214.400,159.400 214.400 C 159.950 214.400,160.400 214.220,160.400 214.000 C 160.400 213.780,160.760 213.600,161.200 213.600 C 161.640 213.600,162.000 213.420,162.000 213.200 C 162.000 212.980,162.320 212.800,162.712 212.800 C 163.103 212.800,163.683 212.440,164.000 212.000 C 164.317 211.560,164.897 211.200,165.288 211.200 C 165.680 211.200,166.000 210.956,166.000 210.658 C 166.000 210.360,166.506 209.685,167.124 209.158 C 167.742 208.631,168.624 207.570,169.084 206.800 C 170.858 203.832,171.600 202.354,171.600 201.788 C 171.600 201.465,171.780 201.200,172.000 201.200 C 172.220 201.200,172.364 201.065,172.321 200.900 C 172.233 200.571,172.820 196.957,173.116 196.000 C 173.463 194.881,173.674 186.768,173.374 186.082 C 173.211 185.707,173.005 184.972,172.918 184.449 C 172.388 181.281,167.214 176.802,163.515 176.308 C 162.918 176.229,162.303 176.037,162.148 175.882 C 161.993 175.727,160.827 175.600,159.557 175.600 C 158.287 175.600,157.136 175.420,157.000 175.200 C 156.844 174.947,152.063 174.800,143.976 174.800 C 135.725 174.800,131.200 174.942,131.200 175.200 M73.842 187.637 C 72.947 189.430,73.053 189.651,74.057 188.083 C 74.520 187.359,74.806 186.673,74.692 186.558 C 74.577 186.444,74.195 186.929,73.842 187.637 M149.793 189.138 C 150.009 189.261,150.459 189.387,150.793 189.417 C 153.494 189.660,155.200 190.572,155.200 191.771 C 155.200 192.117,155.380 192.400,155.600 192.400 C 155.820 192.400,156.000 193.300,156.000 194.400 C 156.000 195.500,155.820 196.400,155.600 196.400 C 155.380 196.400,155.200 196.852,155.200 197.405 C 155.200 199.141,153.149 202.000,151.904 202.000 C 151.491 202.000,151.264 202.180,151.400 202.400 C 151.547 202.638,151.071 202.800,150.224 202.800 C 149.441 202.800,148.800 202.980,148.800 203.200 C 148.800 203.440,147.186 203.600,144.757 203.600 C 141.052 203.600,140.741 203.542,141.033 202.900 C 141.208 202.515,141.424 201.165,141.511 199.900 C 141.599 198.635,141.835 197.600,142.036 197.600 C 142.236 197.600,142.400 196.610,142.400 195.400 C 142.400 194.190,142.580 193.200,142.800 193.200 C 143.020 193.200,143.200 192.315,143.200 191.233 C 143.200 190.041,143.397 189.182,143.700 189.052 C 144.346 188.775,149.279 188.845,149.793 189.138 M71.451 191.752 C 70.635 192.936,69.615 194.224,69.184 194.614 C 68.753 195.005,68.400 195.494,68.400 195.702 C 68.400 196.162,71.668 192.270,72.586 190.717 C 73.678 188.867,73.031 189.457,71.451 191.752 M189.600 194.304 C 187.221 194.639,181.200 197.061,181.200 197.683 C 181.200 197.857,180.954 198.000,180.654 198.000 C 180.354 198.000,178.779 199.308,177.154 200.907 C 174.543 203.476,173.484 204.950,171.840 208.297 C 171.598 208.790,171.265 209.195,171.100 209.197 C 170.935 209.199,170.800 209.729,170.800 210.376 C 170.800 211.023,170.639 211.652,170.442 211.774 C 169.218 212.530,169.146 225.829,170.361 226.800 C 170.498 226.910,171.043 227.857,171.570 228.904 C 172.743 231.230,175.058 234.000,175.831 234.000 C 176.144 234.000,176.400 234.148,176.400 234.329 C 176.400 234.736,180.018 236.400,180.904 236.400 C 181.261 236.400,181.651 236.559,181.771 236.754 C 182.404 237.777,192.090 237.166,194.495 235.951 C 194.877 235.758,195.464 235.600,195.800 235.600 C 196.513 235.600,197.827 234.892,198.955 233.900 C 200.035 232.950,200.400 233.020,200.400 234.177 C 200.400 236.065,201.589 236.400,208.289 236.400 C 211.802 236.400,214.400 236.241,214.400 236.027 C 214.400 235.822,214.760 235.540,215.200 235.400 C 215.640 235.260,216.000 234.888,216.000 234.573 C 216.000 234.258,216.180 234.000,216.400 234.000 C 216.620 234.000,216.800 233.136,216.800 232.080 C 216.800 231.024,216.964 229.989,217.165 229.780 C 217.365 229.571,217.631 228.410,217.756 227.200 C 217.880 225.990,218.084 224.010,218.210 222.800 C 218.336 221.590,218.601 220.240,218.800 219.800 C 218.999 219.360,219.252 218.100,219.363 217.000 C 219.474 215.900,219.739 213.920,219.953 212.600 C 220.166 211.280,220.536 208.940,220.775 207.400 C 221.772 200.986,221.911 200.146,222.160 199.000 C 222.304 198.340,222.282 197.611,222.111 197.381 C 219.626 194.029,206.000 194.252,206.000 197.645 C 206.000 197.825,205.226 197.451,204.280 196.812 C 200.950 194.564,194.986 193.545,189.600 194.304 M261.800 195.686 C 260.857 196.231,260.000 197.042,260.000 197.389 C 260.000 197.525,259.100 198.970,258.000 200.600 C 256.900 202.230,256.000 203.670,256.000 203.799 C 256.000 203.928,255.640 204.420,255.200 204.892 C 254.760 205.364,254.400 205.987,254.400 206.275 C 254.400 206.564,254.232 206.800,254.027 206.800 C 253.822 206.800,253.538 207.166,253.396 207.613 C 253.254 208.060,252.702 208.862,252.169 209.395 C 251.636 209.928,251.200 210.481,251.200 210.624 C 251.200 210.767,250.660 211.684,250.000 212.662 C 249.340 213.640,248.800 214.527,248.800 214.634 C 248.800 214.741,248.507 215.275,248.149 215.821 C 247.400 216.965,246.438 216.246,246.413 214.524 C 246.406 214.042,246.220 213.536,246.000 213.400 C 245.780 213.264,245.600 212.724,245.600 212.200 C 245.600 211.676,245.420 211.136,245.200 211.000 C 244.980 210.864,244.800 210.223,244.800 209.576 C 244.800 208.929,244.620 208.400,244.400 208.400 C 244.180 208.400,244.000 207.860,244.000 207.200 C 244.000 206.540,243.820 206.000,243.600 206.000 C 243.380 206.000,243.200 205.370,243.200 204.600 C 243.200 203.830,243.020 203.200,242.800 203.200 C 242.580 203.200,242.400 202.671,242.400 202.024 C 242.400 201.377,242.220 200.736,242.000 200.600 C 241.780 200.464,241.600 200.031,241.600 199.638 C 241.600 198.407,240.425 196.502,239.493 196.220 C 236.936 195.447,226.231 195.964,225.515 196.894 C 224.751 197.887,224.567 199.809,225.200 200.200 C 225.420 200.336,225.600 200.876,225.600 201.400 C 225.600 201.924,225.783 202.466,226.007 202.604 C 226.230 202.742,226.328 202.994,226.223 203.162 C 226.119 203.331,226.575 204.984,227.238 206.835 C 227.900 208.686,229.337 212.900,230.431 216.200 C 231.525 219.500,232.595 222.513,232.810 222.895 C 233.024 223.277,233.200 223.941,233.200 224.371 C 233.200 224.801,233.380 225.264,233.600 225.400 C 233.820 225.536,234.000 226.076,234.000 226.600 C 234.000 227.124,234.180 227.664,234.400 227.800 C 234.620 227.936,234.800 228.472,234.800 228.990 C 234.800 229.509,234.963 229.993,235.163 230.067 C 236.253 230.467,235.434 234.082,233.895 235.662 C 233.607 235.958,232.827 237.010,232.163 238.000 C 231.498 238.990,230.259 240.790,229.409 242.000 C 228.560 243.210,227.490 244.740,227.032 245.400 C 226.575 246.060,226.065 246.660,225.900 246.733 C 225.254 247.021,225.583 250.899,226.300 251.443 C 227.322 252.219,237.642 252.209,239.120 251.432 C 240.431 250.742,241.600 249.405,241.600 248.595 C 241.600 248.268,241.750 248.000,241.932 248.000 C 242.115 248.000,242.520 247.508,242.832 246.907 C 243.145 246.306,243.895 245.289,244.500 244.648 C 245.105 244.006,245.600 243.304,245.600 243.088 C 245.600 242.871,245.916 242.403,246.303 242.047 C 246.689 241.691,247.260 240.905,247.570 240.300 C 247.881 239.695,248.285 239.200,248.468 239.200 C 248.650 239.200,248.800 239.031,248.800 238.825 C 248.800 238.383,254.453 230.262,254.897 230.067 C 255.064 229.993,255.200 229.765,255.200 229.560 C 255.200 229.230,258.093 224.987,259.185 223.717 C 259.413 223.451,259.607 223.091,259.616 222.917 C 259.625 222.743,260.165 221.977,260.816 221.215 C 261.467 220.453,262.000 219.690,262.000 219.520 C 262.000 219.222,262.841 218.100,263.900 216.984 C 264.175 216.694,264.400 216.309,264.401 216.129 C 264.401 215.948,264.941 215.170,265.600 214.400 C 266.259 213.630,266.799 212.777,266.799 212.503 C 266.800 212.230,267.160 211.782,267.600 211.507 C 268.040 211.232,268.400 210.857,268.400 210.672 C 268.400 210.488,269.584 208.615,271.031 206.511 C 275.077 200.626,275.379 200.210,275.700 200.067 C 275.865 199.993,276.000 199.599,276.000 199.190 C 276.000 198.782,276.180 198.336,276.400 198.200 C 277.011 197.822,276.889 197.413,275.819 196.258 C 274.717 195.069,263.651 194.617,261.800 195.686 M65.600 197.832 C 63.656 199.403,59.701 201.617,57.400 202.424 C 55.268 203.171,54.524 203.594,55.800 203.334 C 58.770 202.727,65.446 198.982,67.362 196.849 C 68.473 195.611,68.071 195.836,65.600 197.832 M52.000 204.006 C 51.578 204.282,51.815 204.323,52.800 204.142 C 54.525 203.825,54.851 203.598,53.567 203.606 C 53.035 203.609,52.330 203.789,52.000 204.006 M46.600 204.800 C 44.834 205.249,46.845 205.269,49.000 204.823 L 50.600 204.492 49.200 204.493 C 48.430 204.494,47.260 204.632,46.600 204.800 M29.424 205.813 C 28.996 206.136,28.825 206.400,29.044 206.400 C 29.262 206.400,29.611 206.237,29.820 206.039 C 30.029 205.840,30.560 205.591,31.000 205.485 L 31.800 205.293 31.000 205.259 C 30.560 205.241,29.851 205.490,29.424 205.813 M197.200 206.956 C 204.342 209.056,205.782 216.561,200.178 222.474 C 199.383 223.313,198.478 224.000,198.166 224.000 C 197.855 224.000,197.600 224.180,197.600 224.400 C 197.600 224.620,197.240 224.800,196.800 224.800 C 196.360 224.800,196.000 224.980,196.000 225.200 C 196.000 225.435,194.608 225.600,192.624 225.600 C 190.767 225.600,189.136 225.420,189.000 225.200 C 188.864 224.980,188.485 224.800,188.158 224.800 C 187.419 224.800,185.948 223.331,185.353 222.000 C 184.265 219.562,183.674 215.600,184.400 215.600 C 184.620 215.600,184.800 215.160,184.800 214.623 C 184.800 210.194,192.345 205.529,197.200 206.956 " stroke="none" fill="#243b83" fill-rule="evenodd"></path><path id="path2" d="M13.269 149.639 C 12.510 150.854,12.966 151.016,13.755 149.812 C 14.120 149.256,14.278 148.800,14.105 148.800 C 13.933 148.800,13.557 149.178,13.269 149.639 M11.264 155.085 C 11.146 156.834,11.382 156.740,11.733 154.900 C 11.869 154.185,11.841 153.600,11.672 153.600 C 11.502 153.600,11.319 154.268,11.264 155.085 M10.649 159.015 C 10.512 159.373,10.424 160.326,10.453 161.133 C 10.501 162.444,10.538 162.387,10.795 160.600 C 11.103 158.471,11.055 157.958,10.649 159.015 M33.895 171.997 C 32.652 172.975,32.505 173.590,30.791 184.998 C 30.414 187.508,30.032 190.004,29.214 195.300 C 29.002 196.675,28.626 199.150,28.378 200.800 C 28.131 202.450,27.777 204.608,27.593 205.595 C 27.168 207.865,27.260 207.932,28.791 206.468 L 30.047 205.268 38.524 205.059 C 50.434 204.765,53.733 204.170,60.400 201.112 C 66.783 198.184,75.600 187.998,75.600 183.552 C 75.600 183.139,75.780 182.800,76.000 182.800 C 76.220 182.800,76.400 182.260,76.400 181.600 C 76.400 180.940,76.561 180.400,76.758 180.400 C 76.955 180.400,77.215 179.725,77.335 178.900 C 77.790 175.794,78.107 174.800,78.645 174.800 C 78.950 174.800,79.200 174.521,79.200 174.180 C 79.200 173.724,79.027 173.657,78.547 173.925 C 77.904 174.286,76.355 173.938,69.972 171.999 C 65.921 170.768,35.459 170.767,33.895 171.997 M129.700 175.596 C 128.985 176.032,128.400 176.602,128.400 176.864 C 128.400 177.125,128.817 176.948,129.326 176.470 C 129.835 175.991,130.465 175.600,130.726 175.600 C 130.987 175.600,131.200 175.420,131.200 175.200 C 131.200 174.677,131.211 174.674,129.700 175.596 M157.000 175.200 C 157.136 175.420,157.642 175.597,158.124 175.594 C 158.836 175.589,158.888 175.515,158.400 175.200 C 157.612 174.691,156.685 174.691,157.000 175.200 M167.600 178.020 C 169.245 179.136,169.829 179.327,168.917 178.449 C 168.431 177.982,167.801 177.603,167.517 177.606 C 167.147 177.611,167.171 177.728,167.600 178.020 M127.754 178.577 C 127.632 178.894,127.603 179.479,127.689 179.877 C 127.787 180.328,127.924 180.112,128.054 179.300 C 128.271 177.938,128.130 177.596,127.754 178.577 M170.606 180.112 C 170.992 180.724,171.409 181.124,171.532 181.001 C 171.655 180.878,171.339 180.378,170.830 179.889 L 169.904 179.000 170.606 180.112 M173.135 185.683 C 173.530 186.188,173.635 187.561,173.535 190.947 C 173.461 193.466,173.532 195.319,173.694 195.064 C 174.364 194.007,174.037 186.127,173.300 185.549 C 172.669 185.054,172.653 185.068,173.135 185.683 M143.600 189.200 C 143.115 189.514,143.172 189.589,143.900 189.594 C 144.395 189.597,144.800 189.420,144.800 189.200 C 144.800 188.699,144.376 188.699,143.600 189.200 M148.400 189.193 C 149.079 189.640,150.281 189.747,149.856 189.323 C 149.704 189.171,149.179 188.990,148.690 188.922 C 147.984 188.823,147.924 188.879,148.400 189.193 M199.329 194.406 C 200.293 195.022,202.471 195.639,202.214 195.222 C 202.103 195.042,201.604 194.807,201.106 194.699 C 200.608 194.591,199.840 194.376,199.400 194.221 C 198.658 193.960,198.653 193.973,199.329 194.406 M207.861 195.100 C 207.758 195.265,210.272 195.346,213.447 195.279 C 219.406 195.155,220.765 195.485,222.094 197.381 C 222.284 197.652,222.390 197.617,222.394 197.281 C 222.397 196.996,221.861 196.456,221.203 196.081 C 220.544 195.707,220.004 195.265,220.003 195.100 C 220.001 194.935,217.311 194.800,214.024 194.800 C 210.737 194.800,207.963 194.935,207.861 195.100 M262.000 195.100 C 262.000 195.265,264.970 195.400,268.600 195.400 C 272.230 195.400,275.200 195.265,275.200 195.100 C 275.200 194.935,272.230 194.800,268.600 194.800 C 264.970 194.800,262.000 194.935,262.000 195.100 M183.200 196.000 C 183.200 196.220,182.840 196.400,182.400 196.400 C 181.960 196.400,181.600 196.574,181.600 196.787 C 181.600 197.228,182.622 196.923,183.789 196.134 C 184.478 195.667,184.491 195.600,183.889 195.600 C 183.510 195.600,183.200 195.780,183.200 196.000 M225.269 196.439 C 224.980 196.900,224.843 197.376,224.963 197.496 C 225.083 197.616,225.300 197.404,225.446 197.024 C 225.592 196.644,226.091 196.180,226.556 195.992 C 227.371 195.662,227.373 195.650,226.596 195.625 C 226.154 195.611,225.557 195.978,225.269 196.439 M230.117 195.897 C 231.611 195.974,233.951 195.974,235.317 195.896 C 236.682 195.818,235.460 195.755,232.600 195.755 C 229.740 195.756,228.622 195.820,230.117 195.897 M260.323 196.300 C 259.574 197.172,259.058 198.535,259.605 198.197 C 259.822 198.063,260.000 197.760,260.000 197.523 C 260.000 197.287,260.388 196.758,260.861 196.347 C 261.335 195.936,261.543 195.600,261.323 195.600 C 261.104 195.600,260.653 195.915,260.323 196.300 M204.844 197.155 C 205.711 197.857,207.297 197.164,206.546 196.412 C 206.442 196.308,206.194 196.486,205.995 196.808 C 205.707 197.274,205.532 197.292,205.137 196.897 C 204.863 196.623,204.476 196.400,204.276 196.400 C 204.075 196.400,204.331 196.740,204.844 197.155 M172.849 197.200 C 172.816 197.530,172.689 198.250,172.567 198.800 C 172.375 199.664,172.407 199.703,172.799 199.088 C 173.048 198.697,173.175 197.977,173.081 197.488 C 172.986 197.000,172.882 196.870,172.849 197.200 M178.860 198.642 C 178.562 198.978,178.399 199.332,178.495 199.429 C 178.592 199.526,178.998 199.244,179.398 198.802 C 179.797 198.361,179.961 198.007,179.762 198.015 C 179.563 198.024,179.157 198.305,178.860 198.642 M222.046 199.467 C 222.021 199.724,221.884 200.264,221.741 200.667 C 221.540 201.236,221.594 201.297,221.979 200.942 C 222.252 200.691,222.389 200.151,222.284 199.742 C 222.179 199.334,222.072 199.210,222.046 199.467 M274.104 202.100 C 272.755 203.811,270.843 206.800,271.097 206.799 C 271.264 206.799,271.900 206.034,272.512 205.099 C 273.123 204.165,273.910 202.995,274.261 202.500 C 274.924 201.562,274.793 201.226,274.104 202.100 M221.029 205.029 C 220.881 205.615,220.851 206.184,220.961 206.294 C 221.071 206.404,221.281 206.015,221.429 205.429 C 221.576 204.842,221.606 204.273,221.496 204.163 C 221.386 204.053,221.176 204.442,221.029 205.029 M169.053 206.900 L 168.333 208.200 169.158 207.200 C 169.889 206.313,170.214 205.600,169.886 205.600 C 169.824 205.600,169.449 206.185,169.053 206.900 M196.576 207.021 C 197.004 207.339,197.668 207.600,198.053 207.600 C 198.438 207.600,198.864 207.780,199.000 208.000 C 199.136 208.220,199.552 208.389,199.924 208.375 C 200.643 208.348,199.808 207.912,197.200 206.956 C 195.958 206.500,195.888 206.507,196.576 207.021 M187.700 209.398 C 186.957 210.242,187.094 210.473,188.000 209.907 C 188.440 209.632,188.800 209.271,188.800 209.104 C 188.800 208.627,188.249 208.775,187.700 209.398 M220.446 209.467 C 220.421 209.724,220.284 210.264,220.141 210.667 C 219.940 211.236,219.994 211.297,220.379 210.942 C 220.652 210.691,220.789 210.151,220.684 209.742 C 220.579 209.334,220.472 209.210,220.446 209.467 M219.479 214.957 C 219.315 215.374,219.275 215.809,219.391 215.924 C 219.755 216.289,220.076 215.691,219.924 214.931 C 219.783 214.235,219.762 214.236,219.479 214.957 M246.877 215.974 C 247.143 216.400,247.505 216.658,247.683 216.549 C 247.861 216.439,247.748 216.090,247.432 215.774 C 246.612 214.955,246.309 215.065,246.877 215.974 M138.905 217.300 C 138.344 218.014,137.916 220.499,138.406 220.196 C 138.623 220.062,138.800 219.459,138.800 218.856 C 138.800 218.253,139.016 217.544,139.280 217.280 C 139.544 217.016,139.656 216.800,139.529 216.800 C 139.402 216.800,139.121 217.025,138.905 217.300 M255.881 228.239 C 255.486 228.768,255.308 229.200,255.485 229.200 C 255.834 229.200,256.938 227.601,256.728 227.400 C 256.657 227.333,256.277 227.711,255.881 228.239 M214.812 235.584 C 214.488 235.789,214.344 236.078,214.493 236.226 C 214.641 236.374,215.053 236.204,215.410 235.848 C 216.113 235.144,215.757 234.987,214.812 235.584 M250.499 235.991 C 249.812 237.090,249.874 237.383,250.632 236.625 C 250.980 236.277,251.204 235.813,251.131 235.592 C 251.057 235.372,250.773 235.551,250.499 235.991 M228.074 243.066 C 227.345 244.065,226.829 244.962,226.926 245.060 C 227.132 245.266,229.600 242.000,229.600 241.521 C 229.600 241.017,229.484 241.135,228.074 243.066 " stroke="none" fill="#242c64" fill-rule="evenodd"></path><path id="path3" d="M78.424 175.371 C 78.154 175.696,78.018 176.285,78.121 176.681 C 78.272 177.266,78.316 177.238,78.354 176.533 C 78.379 176.057,78.625 175.586,78.900 175.488 C 79.175 175.390,79.291 175.191,79.157 175.045 C 79.023 174.900,78.693 175.046,78.424 175.371 M77.400 178.800 C 77.248 179.491,77.207 180.141,77.309 180.242 C 77.411 180.344,77.609 179.853,77.750 179.150 C 78.083 177.483,77.760 177.160,77.400 178.800 M75.667 184.380 C 75.433 185.051,75.327 185.600,75.431 185.600 C 75.701 185.600,76.456 183.522,76.257 183.324 C 76.167 183.233,75.901 183.708,75.667 184.380 M73.400 189.200 C 73.059 189.860,72.869 190.400,72.979 190.400 C 73.089 190.400,73.459 189.860,73.800 189.200 C 74.141 188.540,74.331 188.000,74.221 188.000 C 74.111 188.000,73.741 188.540,73.400 189.200 M70.208 193.900 C 69.349 194.945,69.060 195.440,69.566 195.000 C 70.461 194.222,72.198 192.000,71.912 192.000 C 71.834 192.000,71.067 192.855,70.208 193.900 M66.975 197.300 L 65.800 198.600 67.100 197.425 C 67.815 196.779,68.400 196.194,68.400 196.125 C 68.400 195.816,68.070 196.088,66.975 197.300 M51.400 204.400 C 50.293 204.682,50.277 204.709,51.200 204.747 C 51.750 204.769,52.470 204.613,52.800 204.400 C 53.481 203.960,53.129 203.960,51.400 204.400 M35.500 205.498 C 37.755 205.570,41.445 205.570,43.700 205.498 C 45.955 205.427,44.110 205.369,39.600 205.369 C 35.090 205.369,33.245 205.427,35.500 205.498 M27.260 208.257 C 26.742 208.753,26.413 209.392,26.528 209.679 C 26.696 210.097,26.743 210.094,26.768 209.664 C 26.786 209.369,27.205 208.800,27.700 208.399 C 28.195 207.997,28.510 207.599,28.400 207.513 C 28.290 207.427,27.777 207.762,27.260 208.257 M25.876 211.610 C 25.730 212.155,25.628 213.140,25.649 213.800 C 25.680 214.757,25.759 214.636,26.042 213.200 C 26.429 211.233,26.302 210.017,25.876 211.610 M25.076 216.410 C 24.930 216.955,24.828 217.940,24.849 218.600 C 24.880 219.557,24.959 219.436,25.242 218.000 C 25.629 216.033,25.502 214.817,25.076 216.410 M24.253 221.636 C 24.114 222.331,24.021 223.373,24.047 223.950 C 24.072 224.528,24.255 224.027,24.452 222.839 C 24.837 220.521,24.673 219.534,24.253 221.636 M23.453 226.436 C 23.314 227.131,23.221 228.173,23.247 228.750 C 23.272 229.328,23.455 228.827,23.652 227.639 C 24.037 225.321,23.873 224.334,23.453 226.436 M22.460 232.850 C 22.427 233.428,22.311 234.507,22.201 235.250 L 22.003 236.600 22.424 235.257 C 22.655 234.519,22.772 233.439,22.682 232.857 L 22.520 231.800 22.460 232.850 " stroke="none" fill="#1c68a4" fill-rule="evenodd"></path><path id="path4" d="M68.185 196.500 L 66.200 198.600 68.300 196.615 C 69.455 195.523,70.400 194.578,70.400 194.515 C 70.400 194.217,70.029 194.549,68.185 196.500 M64.481 199.372 C 62.623 200.685,62.362 201.061,63.931 200.162 C 64.663 199.743,65.450 199.175,65.680 198.900 C 66.271 198.193,65.993 198.302,64.481 199.372 M48.400 205.200 C 47.576 205.464,47.541 205.526,48.200 205.554 C 48.640 205.573,49.270 205.413,49.600 205.200 C 50.301 204.747,49.814 204.747,48.400 205.200 M26.454 210.800 C 26.419 211.350,26.296 212.250,26.183 212.800 L 25.977 213.800 26.407 212.815 C 26.643 212.274,26.765 211.374,26.678 210.815 L 26.520 209.800 26.454 210.800 M76.460 215.042 C 76.162 215.378,75.999 215.732,76.095 215.829 C 76.192 215.926,76.598 215.644,76.998 215.202 C 77.397 214.761,77.561 214.407,77.362 214.415 C 77.163 214.424,76.757 214.705,76.460 215.042 M25.654 215.600 C 25.619 216.150,25.496 217.050,25.383 217.600 L 25.177 218.600 25.607 217.615 C 25.843 217.074,25.965 216.174,25.878 215.615 L 25.720 214.600 25.654 215.600 M24.854 220.400 C 24.819 220.950,24.696 221.850,24.583 222.400 L 24.377 223.400 24.807 222.415 C 25.043 221.874,25.165 220.974,25.078 220.415 L 24.920 219.400 24.854 220.400 M24.054 225.400 C 24.019 225.840,23.889 226.650,23.767 227.200 C 23.575 228.063,23.607 228.103,23.998 227.490 C 24.247 227.099,24.377 226.289,24.286 225.690 C 24.178 224.979,24.097 224.879,24.054 225.400 M23.254 230.200 C 23.219 230.640,23.089 231.450,22.967 232.000 C 22.775 232.863,22.807 232.903,23.198 232.290 C 23.447 231.899,23.577 231.089,23.486 230.490 C 23.378 229.779,23.297 229.679,23.254 230.200 M22.222 236.222 C 22.072 237.025,22.038 237.772,22.148 237.882 C 22.258 237.992,22.472 237.425,22.622 236.622 C 22.773 235.819,22.806 235.073,22.696 234.963 C 22.586 234.853,22.373 235.419,22.222 236.222 " stroke="none" fill="#1c74b4" fill-rule="evenodd"></path></g></svg>